<svg width="45" height="42" viewBox="0 0 45 42" fill="none" xmlns="http://www.w3.org/2000/svg">
<path d="M24.6247 21.7751V14.1251C24.6247 13.523 24.421 13.0183 24.0137 12.611C23.6064 12.2037 23.1018 12.0001 22.4997 12.0001C21.8976 12.0001 21.3929 12.2037 20.9856 12.611C20.5783 13.0183 20.3747 13.523 20.3747 14.1251V22.572C20.3747 22.8553 20.4278 23.1298 20.534 23.3954C20.6403 23.661 20.7997 23.9001 21.0122 24.1126L26.9622 30.0626C27.3517 30.4522 27.8476 30.647 28.4497 30.647C29.0518 30.647 29.5476 30.4522 29.9372 30.0626C30.3268 29.673 30.5215 29.1772 30.5215 28.5751C30.5215 27.973 30.3268 27.4772 29.9372 27.0876L24.6247 21.7751ZM22.4997 41.7501C19.8434 41.7501 17.3554 41.2454 15.0356 40.236C12.7158 39.2267 10.6971 37.8631 8.97936 36.1454C7.26165 34.4277 5.89811 32.409 4.88873 30.0892C3.87936 27.7694 3.37467 25.2813 3.37467 22.6251C3.37467 19.9688 3.87936 17.4808 4.88873 15.161C5.89811 12.8412 7.26165 10.8225 8.97936 9.10478C10.6971 7.38708 12.7158 6.02354 15.0356 5.01416C17.3554 4.00479 19.8434 3.5001 22.4997 3.5001C25.1559 3.5001 27.6439 4.00479 29.9637 5.01416C32.2835 6.02354 34.3023 7.38708 36.02 9.10478C37.7377 10.8225 39.1012 12.8412 40.1106 15.161C41.12 17.4808 41.6247 19.9688 41.6247 22.6251C41.6247 25.2813 41.12 27.7694 40.1106 30.0892C39.1012 32.409 37.7377 34.4277 36.02 36.1454C34.3023 37.8631 32.2835 39.2267 29.9637 40.236C27.6439 41.2454 25.1559 41.7501 22.4997 41.7501ZM1.35592 10.5126C0.966337 10.123 0.771545 9.62718 0.771545 9.0251C0.771545 8.42301 0.966337 7.92718 1.35592 7.5376L7.41217 1.48135C7.80175 1.09176 8.29759 0.896973 8.89967 0.896973C9.50175 0.896973 9.99759 1.09176 10.3872 1.48135C10.7768 1.87093 10.9715 2.36676 10.9715 2.96885C10.9715 3.57093 10.7768 4.06676 10.3872 4.45635L4.33092 10.5126C3.94134 10.9022 3.4455 11.097 2.84342 11.097C2.24134 11.097 1.7455 10.9022 1.35592 10.5126ZM43.6434 10.5126C43.2538 10.9022 42.758 11.097 42.1559 11.097C41.5538 11.097 41.058 10.9022 40.6684 10.5126L34.6122 4.45635C34.2226 4.06676 34.0278 3.57093 34.0278 2.96885C34.0278 2.36676 34.2226 1.87093 34.6122 1.48135C35.0018 1.09176 35.4976 0.896973 36.0997 0.896973C36.7017 0.896973 37.1976 1.09176 37.5872 1.48135L43.6434 7.5376C44.033 7.92718 44.2278 8.42301 44.2278 9.0251C44.2278 9.62718 44.033 10.123 43.6434 10.5126ZM22.4997 37.5001C26.6434 37.5001 30.1585 36.0569 33.045 33.1704C35.9314 30.284 37.3747 26.7688 37.3747 22.6251C37.3747 18.4813 35.9314 14.9662 33.045 12.0798C30.1585 9.19333 26.6434 7.7501 22.4997 7.7501C18.3559 7.7501 14.8408 9.19333 11.9544 12.0798C9.0679 14.9662 7.62467 18.4813 7.62467 22.6251C7.62467 26.7688 9.0679 30.284 11.9544 33.1704C14.8408 36.0569 18.3559 37.5001 22.4997 37.5001Z" fill="#4521B1"/>
</svg>
