<svg width="28" height="28" viewBox="0 0 28 28" fill="none" xmlns="http://www.w3.org/2000/svg">
<path d="M13.6471 27.1045C11.7936 27.1045 10.0518 26.7528 8.42162 26.0494C6.79144 25.3459 5.37341 24.3913 4.16753 23.1854C2.96165 21.9795 2.00699 20.5615 1.30356 18.9313C0.600129 17.3011 0.248413 15.5593 0.248413 13.7058C0.248413 11.8523 0.600129 10.1105 1.30356 8.48033C2.00699 6.85016 2.96165 5.43213 4.16753 4.22625C5.37341 3.02036 6.79144 2.06571 8.42162 1.36228C10.0518 0.658845 11.7936 0.307129 13.6471 0.307129C15.5006 0.307129 17.2424 0.658845 18.8726 1.36228C20.5028 2.06571 21.9208 3.02036 23.1267 4.22625C24.3326 5.43213 25.2872 6.85016 25.9907 8.48033C26.6941 10.1105 27.0458 11.8523 27.0458 13.7058C27.0458 15.5593 26.6941 17.3011 25.9907 18.9313C25.2872 20.5615 24.3326 21.9795 23.1267 23.1854C21.9208 24.3913 20.5028 25.3459 18.8726 26.0494C17.2424 26.7528 15.5006 27.1045 13.6471 27.1045ZM13.6471 24.4248C14.853 24.4248 16.0142 24.2294 17.1308 23.8386C18.2473 23.4478 19.2746 22.8839 20.2125 22.147L5.20593 7.14046C4.469 8.07837 3.90514 9.1056 3.51434 10.2222C3.12355 11.3387 2.92815 12.4999 2.92815 13.7058C2.92815 16.6982 3.96655 19.2328 6.04335 21.3096C8.12015 23.3864 10.6547 24.4248 13.6471 24.4248ZM22.0883 20.2712C22.8252 19.3333 23.3891 18.306 23.7799 17.1895C24.1707 16.0729 24.3661 14.9117 24.3661 13.7058C24.3661 10.7134 23.3277 8.17886 21.2509 6.10206C19.1741 4.02527 16.6395 2.98687 13.6471 2.98687C12.4412 2.98687 11.28 3.18227 10.1634 3.57306C9.04689 3.96386 8.01965 4.52772 7.08175 5.26465L22.0883 20.2712Z" fill="#BF172B"/>
</svg>
