<svg width="22" height="22" viewBox="0 0 22 22" fill="none" xmlns="http://www.w3.org/2000/svg">
<path d="M20.5595 8.72298L11.8095 0.467359C11.8053 0.463627 11.8012 0.459607 11.7975 0.455327C11.4753 0.162348 11.0555 0 10.6201 0C10.1846 0 9.76481 0.162348 9.44266 0.455327L9.43062 0.467359L0.690469 8.72298C0.512185 8.88692 0.369873 9.08609 0.272538 9.30787C0.175202 9.52965 0.124963 9.76922 0.125 10.0114V20.1231C0.125 20.5873 0.309374 21.0324 0.637563 21.3606C0.965752 21.6888 1.41087 21.8731 1.875 21.8731H7.125C7.58913 21.8731 8.03425 21.6888 8.36244 21.3606C8.69063 21.0324 8.875 20.5873 8.875 20.1231V14.8731H12.375V20.1231C12.375 20.5873 12.5594 21.0324 12.8876 21.3606C13.2158 21.6888 13.6609 21.8731 14.125 21.8731H19.375C19.8391 21.8731 20.2842 21.6888 20.6124 21.3606C20.9406 21.0324 21.125 20.5873 21.125 20.1231V10.0114C21.125 9.76922 21.0748 9.52965 20.9775 9.30787C20.8801 9.08609 20.7378 8.88692 20.5595 8.72298ZM19.375 20.1231H14.125V14.8731C14.125 14.409 13.9406 13.9639 13.6124 13.6357C13.2842 13.3075 12.8391 13.1231 12.375 13.1231H8.875C8.41087 13.1231 7.96575 13.3075 7.63756 13.6357C7.30937 13.9639 7.125 14.409 7.125 14.8731V20.1231H1.875V10.0114L1.88703 10.0005L10.625 1.74814L19.3641 9.9983L19.3761 10.0092L19.375 20.1231Z" fill="#115DA9"/>
</svg>
