<?xml version="1.0" encoding="UTF-8"?>
<!DOCTYPE svg PUBLIC "-//W3C//DTD SVG 1.1//EN" "http://www.w3.org/Graphics/SVG/1.1/DTD/svg11.dtd">
<!-- Creator: CorelDRAW -->
<svg xmlns="http://www.w3.org/2000/svg" xml:space="preserve" width="35px" height="192px" version="1.1" shape-rendering="geometricPrecision" text-rendering="geometricPrecision" image-rendering="optimizeQuality" fill-rule="evenodd" clip-rule="evenodd"
viewBox="0 0 0.63 3.45"
 xmlns:xlink="http://www.w3.org/1999/xlink"
 xmlns:xodm="http://www.corel.com/coreldraw/odm/2003">
 <g id="Слой_x0020_1">
  <metadata id="CorelCorpID_0Corel-Layer"/>
  <g id="_2500644261728">
   <path fill="#4521B1" d="M0.48 0.13l0 1.47c0,0.07 -0.05,0.12 -0.12,0.12l-0.09 0c-0.07,0 -0.13,-0.05 -0.13,-0.12l0 -1.47c0,-0.07 0.06,-0.13 0.13,-0.13l0.09 0c0.07,0 0.12,0.06 0.12,0.13z"/>
   <path fill="none" d="M0.48 3.32l0 -1.47c0,-0.07 -0.05,-0.13 -0.12,-0.13l-0.09 0c-0.07,0 -0.13,0.06 -0.13,0.13l0 1.47c0,0.07 0.06,0.13 0.13,0.13l0.09 0c0.07,0 0.12,-0.06 0.12,-0.13z"/>
  </g>
  <circle fill="#4521B1" cx="0.32" cy="1.72" r="0.32"/>
 </g>
</svg>
