<svg width="21" height="21" viewBox="0 0 21 21" fill="none" xmlns="http://www.w3.org/2000/svg">
<mask id="mask0_221_442" style="mask-type:alpha" maskUnits="userSpaceOnUse" x="0" y="0" width="21" height="21">
<rect width="21" height="21" fill="#D9D9D9"/>
</mask>
<g mask="url(#mask0_221_442)">
<path d="M1.75 21V17.5H19.25V21H1.75ZM5.25 14H6.475L13.3 7.19688L12.0531 5.95L5.25 12.775V14ZM3.5 15.75V12.0312L13.3 2.25313C13.4604 2.09271 13.6464 1.96875 13.8578 1.88125C14.0693 1.79375 14.2917 1.75 14.525 1.75C14.7583 1.75 14.9844 1.79375 15.2031 1.88125C15.4219 1.96875 15.6188 2.1 15.7938 2.275L16.9969 3.5C17.1719 3.66042 17.2995 3.85 17.3797 4.06875C17.4599 4.2875 17.5 4.51354 17.5 4.74688C17.5 4.96563 17.4599 5.18073 17.3797 5.39219C17.2995 5.60365 17.1719 5.79688 16.9969 5.97188L7.21875 15.75H3.5Z" fill="#1C1B1F"/>
</g>
</svg>
