<?xml version="1.0" encoding="UTF-8"?>
<!DOCTYPE svg PUBLIC "-//W3C//DTD SVG 1.1//EN" "http://www.w3.org/Graphics/SVG/1.1/DTD/svg11.dtd">
<!-- Creator: CorelDRAW -->
<svg xmlns="http://www.w3.org/2000/svg" xml:space="preserve" width="100%" height="100%" version="1.1" shape-rendering="geometricPrecision" text-rendering="geometricPrecision" image-rendering="optimizeQuality" fill-rule="evenodd" clip-rule="evenodd"
viewBox="0 0 16061.6 3394.93"
 xmlns:xlink="http://www.w3.org/1999/xlink"
 xmlns:xodm="http://www.corel.com/coreldraw/odm/2003">
 <g id="Слой_x0020_1">
  <metadata id="CorelCorpID_0Corel-Layer"/>
  <g id="_2902250077360">
   <path fill="#2F469B" fill-rule="nonzero" d="M4072.91 374.98l0 2949.02c0,20.28 -30.41,30.41 -81.07,30.41 -40.54,0 -81.06,-10.13 -81.06,-30.41l0 -2949.02c0,-20.27 40.55,-30.4 81.06,-30.4 50.69,0 81.07,10.13 81.07,30.4z"/>
   <g>
    <path fill="#3891C7" d="M6079.46 1955.91c20.28,50.68 60.82,81.06 101.34,81.06l385.08 0c40.55,0 70.96,-30.41 50.68,-81.06l-628.32 -1408.64c-20.28,-40.54 -50.68,-70.95 -91.2,-70.95l-466.18 0c-40.54,0 -81.06,30.41 -101.33,70.95l-618.19 1408.64c-20.27,50.68 10.14,81.06 50.68,81.06l354.71 0c50.68,0 91.2,-30.41 101.33,-81.06l81.06 -192.56 709.39 0 70.95 192.56zm-435.77 -1013.42l20.28 0 182.42 445.91 -385.09 0 182.42 -445.91 -0.03 0z"/>
    <path fill="#3891C7" d="M8430.59 547.27c0,-40.54 -30.41,-70.95 -70.95,-70.95l-678.98 0c-456.04,0 -678.98,222.93 -760.07,577.64l-233.07 901.95c-10.14,50.68 30.41,81.06 81.06,81.06l344.57 0c40.55,0 70.95,-30.41 81.06,-81.06l222.94 -901.95c30.41,-121.6 111.47,-202.69 263.48,-202.69l263.48 0 0 1104.61c0,50.68 30.41,81.06 81.06,81.06l334.44 0c40.55,0 70.95,-30.41 70.95,-81.06l0 -1408.64 0.03 0.03z"/>
    <path fill="#3891C7" d="M10305.41 1043.83c0,-324.3 -243.21,-567.51 -770.21,-567.51l-780.34 0c-40.54,0 -81.06,30.41 -81.06,70.95l0 1408.64c0,50.68 40.55,81.06 81.06,81.06l334.44 0c50.68,0 81.06,-30.41 81.06,-81.06l0 -344.57 364.82 0c526.96,0 770.2,-243.21 770.2,-567.51l0.03 0zm-1135.02 212.83l0 -425.63 364.81 0c172.29,0 263.49,91.19 263.49,212.83 0,121.6 -91.2,212.83 -263.49,212.83l-364.81 0 0 -0.03z"/>
    <path fill="#3891C7" d="M11622.82 1145.16l0 810.72c0,50.68 30.41,81.06 81.06,81.06l334.44 0c40.54,0 81.06,-30.41 81.06,-81.06l0 -1408.64c0,-40.54 -40.55,-70.95 -81.06,-70.95l-385.09 0c-50.68,0 -91.2,40.54 -121.6,70.95l-557.38 820.86 -20.27 0 0 -820.86c0,-40.54 -30.41,-70.95 -81.06,-70.95l-334.44 0c-40.54,0 -81.06,30.41 -81.06,70.95l0 1408.64c0,50.68 40.55,81.06 81.06,81.06l385.09 0c50.68,0 101.33,-40.54 121.61,-81.06l557.37 -810.72 20.27 0z"/>
    <path fill="#3891C7" d="M13984.09 547.27c0,-40.54 -30.41,-70.95 -70.95,-70.95l-334.44 0c-50.68,0 -81.06,30.41 -81.06,70.95l0 526.97 -648.57 0 0 -526.97c0,-40.54 -30.41,-70.95 -81.06,-70.95l-334.44 0c-40.54,0 -81.06,30.41 -81.06,70.95l0 1408.64c0,50.68 40.55,81.06 81.06,81.06l334.44 0c50.68,0 81.06,-30.41 81.06,-81.06l0 -496.59 648.57 0 0 496.59c0,50.68 30.41,81.06 81.06,81.06l334.44 0c40.54,0 70.95,-30.41 70.95,-81.06l0 -1408.64z"/>
    <path fill="#3891C7" d="M15149.52 1712.67c-253.35,0 -405.36,-152.01 -405.36,-456.04 0,-304.03 152.01,-456.04 405.36,-456.04 243.21,0 395.22,152.01 395.22,456.04 0,304.03 -152.01,456.04 -395.22,456.04zm0 -1287.03c-597.92,0 -922.22,324.3 -922.22,830.99 0,506.69 324.3,830.99 922.22,830.99 587.78,0 912.08,-324.3 912.08,-830.99 0,-506.69 -324.3,-830.99 -912.08,-830.99z"/>
   </g>
   <path fill="#2F469B" d="M11582.31 2797.04l-415.5 0c-20.27,0 -40.54,10.13 -40.54,30.41l0 456.04c0,20.27 20.27,40.54 40.54,40.54l415.5 0c20.27,0 30.41,-20.27 30.41,-40.54l0 -30.41c0,-20.27 -10.14,-40.55 -30.41,-40.55l-314.17 0 0 -101.33 273.62 0c20.27,0 30.41,-20.27 30.41,-40.54l0 -30.41c0,-20.27 -10.14,-30.41 -30.41,-30.41l-273.62 0 0 -111.47 314.17 0c20.27,0 30.41,-10.14 30.41,-30.41l0 -40.54c0,-20.27 -10.14,-30.41 -30.41,-30.41l0 0.03zm618.16 415.49c0,-152.01 -273.62,-121.6 -273.62,-182.42 0,-20.27 20.27,-30.41 70.95,-30.41 30.41,0 60.82,10.14 70.96,20.28 10.13,10.13 20.27,20.27 40.54,20.27l60.82 0c10.13,0 20.27,-10.14 20.27,-20.27 0,-81.06 -81.06,-111.47 -202.69,-111.47 -101.34,0 -192.56,40.54 -192.56,121.6 0,152.02 273.62,121.61 273.62,182.42 0,20.28 -20.28,30.41 -81.06,30.41 -30.41,0 -60.82,-10.13 -70.96,-20.27 -10.13,-10.14 -20.27,-20.27 -40.54,-20.27l-60.82 0c-10.13,0 -20.27,10.13 -20.27,20.27 0,81.06 81.06,101.33 202.69,101.33 121.61,0 202.7,-30.41 202.7,-111.47l0 0 -0.03 0zm466.18 111.47c10.13,-10.13 20.27,-10.13 20.27,-30.41l0 -30.4c0,-20.28 -10.14,-30.41 -20.27,-30.41l-20.28 0c-10.13,0 -30.4,10.13 -50.68,10.13 -30.41,0 -60.81,-30.4 -60.81,-81.06l0 -131.74 101.33 0c10.14,0 20.27,-10.13 20.27,-20.27l0 -50.68c0,-10.14 -10.13,-20.27 -20.27,-20.27l-101.33 0 0 -121.61c0,-10.13 -10.14,-20.27 -20.28,-20.27l-81.06 0c-10.13,0 -20.27,10.14 -20.27,20.27l0 344.57c0,111.47 50.68,162.15 152.01,162.15 30.41,0 70.96,0 101.34,0l0.03 0zm202.69 -50.65c0,30.41 20.27,50.68 50.68,50.68l50.68 0c30.41,0 50.68,-20.27 50.68,-50.68l0 -20.27c0,-30.41 -20.27,-50.68 -50.68,-50.68l-50.68 0c-30.41,0 -50.68,20.27 -50.68,50.68l0 20.27zm608.06 -40.54l0 50.68c0,20.27 10.13,40.54 30.4,40.54l405.36 0c20.28,0 40.55,-20.27 40.55,-40.54l0 -30.41c0,-20.27 -20.27,-40.55 -40.55,-40.55l-304.02 0c0,-81.06 344.57,-30.4 344.57,-243.21 0,-141.87 -101.33,-172.28 -222.94,-172.28l-50.68 0c-101.33,0 -202.69,50.68 -202.69,141.88 0,30.4 20.27,40.54 30.4,40.54l50.69 0c20.27,0 30.4,-10.14 40.54,-40.54 20.27,-30.41 50.68,-40.55 101.33,-40.55l20.28 0c70.95,0 91.19,10.14 91.19,70.95 0,101.34 -334.43,40.55 -334.43,263.49zm942.46 -334.44c70.95,0 131.74,40.55 131.74,162.15 0,121.61 -60.82,162.15 -131.74,162.15 -81.06,0 -141.88,-40.54 -141.88,-162.15 0,-121.6 60.82,-162.15 141.88,-162.15zm-20.27 -101.33c-141.88,0 -263.49,60.82 -263.49,263.48 0,202.7 121.61,263.48 263.49,263.48l30.4 0c141.88,0 263.49,-60.81 263.49,-263.48 0,-202.69 -121.61,-263.48 -263.49,-263.48l-30.4 0zm608.05 0c-20.27,0 -40.54,0 -50.68,20.27l-91.2 70.95c-10.13,10.14 -20.27,20.28 -10.13,40.55l30.41 30.41c0,10.13 20.27,10.13 30.4,10.13l40.55 -40.54 0 354.71c0,20.27 20.27,40.54 30.41,40.54l70.95 0c20.27,0 40.54,-20.27 40.54,-40.54l0 -456.04c0,-20.28 -20.27,-30.41 -40.54,-30.41l-50.68 0 -0.03 -0.03zm445.91 202.66l0 -20.27c0,-70.95 30.4,-81.06 91.19,-81.06l60.82 0c40.54,0 70.95,10.14 81.06,30.41 10.14,20.27 30.41,30.41 50.68,30.41l40.54 0c10.14,0 40.55,0 40.55,-40.55 0,-70.95 -91.2,-121.6 -192.56,-121.6l-101.33 0c-121.61,0 -202.7,40.54 -202.7,182.42l0 162.15c0,141.88 81.06,182.42 212.83,182.42l81.07 0c131.74,0 202.69,-40.54 202.69,-162.15 0,-121.6 -70.95,-162.15 -202.69,-162.15l-162.15 0 0 -0.03zm141.87 101.37c60.82,0 91.2,10.13 91.2,60.81 0,40.55 -30.41,60.82 -91.2,60.82l-50.68 0c-60.82,0 -91.19,-20.27 -91.19,-81.06l0 -40.55 141.87 0 0 -0.02z"/>
   <g>
    <path fill="#3891C7" d="M1965.01 1236.39l81.07 0c-10.14,70.95 -111.47,222.93 -162.15,273.61l-162.15 162.15c0,0 0,0 0,0 -30.41,30.41 -121.61,101.34 -162.15,121.61 -202.7,141.88 -476.32,253.35 -729.66,273.62l-20.28 10.13c-20.27,0 10.14,-10.13 -10.13,0l20.27 0c324.3,0 638.46,-91.19 881.67,-222.93 243.21,-131.75 415.5,-334.44 496.59,-597.92l60.82 0c-10.14,-20.27 -10.14,-20.27 -10.14,-20.27l-121.61 -141.88 -162.15 141.88z"/>
    <path fill="#2F469B" fill-rule="nonzero" d="M1063.07 557.38c-10.14,10.13 -20.27,30.41 -30.41,40.54 -10.14,10.14 -40.54,10.14 -50.68,20.27 -233.08,101.34 -405.36,243.21 -537.1,405.36 -141.88,172.29 -222.94,374.96 -263.49,608.06 0,253.35 -30.4,364.81 40.55,628.33 0,10.13 0,20.27 0,20.27 10.14,10.14 10.14,10.14 10.14,10.14 0,10.13 0,20.27 0,30.4 -10.14,50.68 -70.96,91.2 -121.61,70.96 -40.54,-20.28 -50.68,-40.55 -50.68,-81.06 -50.68,-162.15 -314.16,-1337.72 881.67,-1864.68 10.14,-10.14 20.28,-10.14 40.55,-10.14 60.82,0 101.33,60.82 81.06,121.61l0 -0.06z"/>
    <path fill="#2F469B" fill-rule="nonzero" d="M2137.3 557.38c10.14,10.13 20.27,30.41 30.41,40.54 10.14,10.14 40.54,10.14 50.68,20.27 233.07,101.34 405.36,243.21 537.1,405.36 141.88,172.29 222.94,374.96 263.48,608.06 0,253.35 30.41,364.81 -40.54,628.33 0,10.13 0,20.27 -10.14,20.27 0,10.14 0,10.14 0,10.14 0,10.13 0,20.27 0,30.4 10.14,50.68 70.96,91.2 121.61,70.96 40.54,-20.28 50.68,-40.55 50.68,-81.06 50.68,-162.15 314.16,-1337.72 -881.67,-1864.68 -10.14,-10.14 -20.28,-10.14 -40.55,-10.14 -60.82,0 -101.33,60.82 -81.06,121.61l0 -0.06z"/>
    <path fill="#2F469B" fill-rule="nonzero" d="M1123.89 3151.72c121.6,50.68 496.58,162.15 932.35,-20.27 30.41,-10.14 50.68,-20.28 81.06,0 40.55,10.13 50.68,70.95 40.55,101.33 -30.41,70.95 -253.35,121.6 -324.3,131.74 -101.34,20.27 -192.56,30.41 -293.9,30.41 -111.46,0 -212.83,-10.14 -293.89,-30.41 -50.68,-10.14 -253.34,-60.82 -283.75,-111.47 -10.14,-10.14 -20.27,-10.14 -20.27,-20.27 -10.14,-50.68 30.4,-111.47 81.06,-111.47 30.4,0 50.68,20.27 81.06,30.41l0.03 0z"/>
    <path fill="#2F469B" d="M1559.65 912.09c70.96,-121.61 141.88,-233.08 212.84,-354.71 0,0 0,-10.14 0,-10.14 20.27,0 40.54,10.14 50.68,20.27 60.81,30.41 131.74,91.2 162.15,152.02 30.4,60.81 40.54,131.74 0,192.56 -20.28,40.54 -81.06,60.81 -131.75,70.95 -182.42,50.68 -405.36,50.68 -587.78,0 -40.54,-10.14 -101.33,-30.41 -131.74,-70.95 -40.54,-60.82 -20.27,-131.75 10.14,-192.56 30.41,-60.82 91.19,-121.61 152.01,-152.02 20.27,-10.13 30.41,-20.27 50.68,-20.27 0,0 10.14,10.14 10.14,10.14 70.95,121.6 131.74,233.07 202.69,354.71l-0.06 0zm-131.74 10.13c-60.81,-10.13 -101.33,-20.27 -162.15,-40.54 -10.13,0 -10.13,0 -10.13,10.13l-10.14 20.28c0,10.13 0,10.13 10.14,10.13 50.68,20.27 101.33,40.55 172.28,40.55 0,0 0,0 0,0 0,-10.14 10.14,-20.28 10.14,-30.41 0,-10.14 0,-10.14 -10.14,-10.14zm263.49 0c60.81,-10.13 111.46,-20.27 172.28,-40.54 0,0 10.14,0 10.14,10.13l0 20.28c10.13,10.13 0,10.13 0,10.13 -50.68,20.27 -111.47,40.55 -172.29,40.55 -10.13,0 -10.13,0 -10.13,0 0,-10.14 0,-20.28 0,-30.41 0,-10.14 0,-10.14 0,-10.14z"/>
    <path fill="#2F469B" d="M667.84 2878.1c20.28,0 30.41,10.13 50.69,10.13 10.13,10.14 30.4,20.28 40.54,30.41l30.41 20.28c0,10.13 0,10.13 10.13,10.13l20.28 20.27c0,10.14 0,10.14 0,10.14 20.27,20.27 40.54,50.68 50.68,70.95 30.41,60.82 40.54,131.75 10.13,192.56 -30.4,40.55 -91.19,60.82 -141.87,70.96 -50.68,10.13 -60.82,20.27 -111.47,20.27 -20.27,10.13 -50.68,10.13 -70.96,10.13l-60.81 0 172.28 -466.17 -0.03 -0.06zm-253.34 466.18l-70.96 0c-20.27,0 -50.68,0 -60.81,-10.14 -60.82,0 -70.96,-10.14 -121.61,-20.27 -50.68,-10.14 -111.47,-30.41 -141.88,-70.96 -30.4,-60.81 -20.27,-131.74 10.14,-192.55 10.14,-20.28 30.41,-50.69 50.68,-70.96 0,0 0,0 0,-10.13l20.27 -20.28c10.14,0 10.14,0 10.14,-10.13l30.41 -20.27c10.14,-10.14 30.41,-20.28 40.54,-30.41 20.28,0 40.55,-10.14 60.82,-10.14l172.29 466.18 -0.03 0.06z"/>
    <path fill="#2F469B" d="M2745.33 3192.26l0 0c10.13,-10.13 10.13,-10.13 10.13,-10.13l50.68 -81.06c0,-10.14 0,-20.28 10.14,-30.41l50.68 -91.2c10.14,-10.14 20.27,-30.41 30.41,-40.54l20.27 -40.55c0,0 0,0 10.14,-10.14 20.27,10.14 30.41,10.14 50.68,20.28 10.13,10.13 30.41,20.27 40.54,30.41l30.41 20.27c0,0 0,10.13 10.14,10.13l20.27 20.28c0,0 0,0 0,10.13 20.27,20.28 40.55,40.55 50.68,70.96 30.41,60.81 40.55,121.6 10.14,192.55 -30.41,40.55 -91.2,60.82 -141.88,70.96 -50.68,10.13 -60.82,10.13 -111.47,20.27 -20.27,0 -50.68,0 -70.95,10.14l-101.33 0 0 0 -10.14 0 -101.33 0c-20.28,-10.14 -50.68,-10.14 -70.96,-10.14 -50.68,-10.14 -60.81,-10.14 -111.47,-20.27 -50.68,-10.14 -111.47,-30.41 -141.87,-70.96 -30.41,-70.95 -20.28,-131.74 10.13,-192.55 10.14,-30.41 30.41,-50.68 50.68,-70.96 0,-10.13 0,-10.13 0,-10.13l20.28 -20.28c10.13,0 10.13,-10.13 10.13,-10.13l30.41 -20.27c10.14,-10.14 30.41,-20.28 40.55,-30.41 20.27,-10.14 30.4,-10.14 60.81,-20.28 0,10.14 0,10.14 0,10.14l20.27 40.55c10.14,10.13 20.28,30.4 30.41,40.54l50.68 91.2c10.14,10.13 10.14,20.27 10.14,30.41l50.68 81.06c0,0 10.14,0 10.14,10.13l0 0 10.13 -111.47c0,0 -10.13,-30.41 -20.27,-30.41 0,-10.13 -10.13,-30.4 -10.13,-40.54 30.4,10.14 81.06,10.14 111.46,0 0,10.14 -10.13,30.41 -10.13,40.54 -10.14,0 -20.27,30.41 -20.27,30.41l10.13 111.47 -0.14 0z"/>
    <path fill="#2F469B" d="M1549.52 618.19c40.54,0 70.95,-20.27 101.33,-30.4 20.27,-10.14 30.41,-30.41 50.68,-50.69 0,0 0,0 0,0 40.55,-50.68 70.96,-121.6 70.96,-192.55 0,-20.28 0,-20.28 -20.28,-40.55 0,0 -10.13,-10.13 -20.27,-10.13 -20.27,-20.28 -20.27,-20.28 -50.68,-30.41 -70.95,-30.41 -182.42,-30.41 -253.35,0 -10.13,10.13 -40.54,30.41 -60.81,40.54 0,10.14 -10.14,10.14 -10.14,10.14 -20.27,20.27 -10.14,20.27 -10.14,40.54 0,10.14 0,10.14 0,20.27 0,40.55 20.28,70.96 30.41,111.47l40.55 50.68c0,10.14 20.27,20.28 20.27,30.41 10.14,0 10.14,10.14 20.27,10.14 10.14,10.14 30.41,20.27 50.68,30.41 10.14,0 20.27,10.13 40.55,10.13l-0.03 0z"/>
    <path fill="#2F469B" d="M1539.38 0l30.41 0c20.27,0 30.41,0 50.68,10.14 30.41,10.14 101.33,30.41 121.61,40.54 10.13,10.14 10.13,10.14 10.13,20.28l0 202.69c-60.81,-40.54 -121.6,-60.82 -202.69,-60.82 -70.96,0 -101.33,10.14 -152.02,30.41l-30.4 20.27c-10.14,10.14 0,10.14 -10.14,10.14 0,-50.68 0,-91.2 0,-141.88 0,-20.27 0,-30.4 0,-40.54 0,-20.27 0,-20.27 10.14,-40.55 20.27,-10.13 20.27,-10.13 50.68,-20.27 30.41,-20.27 70.95,-30.41 121.6,-30.41zm0 91.23l-50.68 0 0 40.54 50.68 0 0 50.68 30.41 0 0 -50.68 60.82 0 0 -40.54c-10.14,0 -20.27,0 -30.41,0 -10.14,0 -20.27,0 -30.41,0l0 -50.68 -30.41 0 0 50.68z"/>
    <path fill="#2F469B" d="M2704.81 2969.32c40.55,0 70.95,-10.13 91.2,-30.4 20.27,-10.14 30.41,-20.28 50.68,-40.55 0,0 0,0 0,0 40.54,-40.54 60.82,-141.88 60.82,-202.69 0,-10.14 0,-20.28 -10.14,-30.41 -10.14,-10.14 -121.61,0 -222.94,0 -70.95,0 -141.88,0 -152.01,0 -10.14,10.13 -10.14,10.13 -10.14,30.41 0,10.13 0,10.13 0,20.27 10.14,40.54 30.41,101.33 40.55,131.74l30.4 50.68c10.14,10.14 20.28,20.27 20.28,20.27 10.13,10.14 10.13,10.14 20.27,20.28 20.27,10.13 30.41,20.27 50.68,20.27 10.14,10.13 20.27,10.13 30.41,10.13l-0.06 0z"/>
    <path fill="#2F469B" d="M2664.27 2341l0 10.13c0,0 -10.14,0 -10.14,0 0,10.14 -10.14,10.14 -10.14,10.14 0,10.14 0,20.27 0,20.27l0 10.14c0,0 10.14,10.13 10.14,10.13 0,10.14 10.14,81.06 10.14,91.2 0,0 -10.14,10.14 -20.28,0 -20.27,0 -20.27,-30.41 -20.27,-50.68 0,-20.27 -10.13,-40.54 -10.13,-60.82l0 0c-40.55,30.41 -60.82,50.68 -81.07,81.06 -10.13,10.14 -10.13,10.14 -10.13,20.28 0,0 -10.14,0 -10.14,10.13l0 0c0,10.14 -10.13,20.27 -10.13,20.27 0,10.14 0,20.28 0,20.28 0,10.13 0,10.13 0,10.13 0,0 0,0 0,0 0,10.14 0,0 -10.14,10.14 10.14,0 0,10.13 0,20.27 0,0 -10.14,0 -20.27,0 0,10.14 0,10.14 -10.14,10.14 0,10.13 0,0 0,10.13 0,0 -10.13,30.41 10.14,40.55 10.13,10.13 50.68,0 70.95,0 111.47,10.13 222.94,0 334.44,0l50.68 0c10.13,0 10.13,0 20.27,0 0,0 0,0 0,0 10.14,0 10.14,-10.14 10.14,-10.14 0,-10.13 10.13,-10.13 10.13,-20.27 -10.13,-20.27 -20.27,-30.41 -40.54,-30.41 -10.14,-30.41 -10.14,-40.54 -20.27,-70.95 0,-10.14 -10.14,-20.27 -10.14,-20.27 0,-10.14 -10.14,-20.28 -10.14,-20.28 0,-10.13 -10.13,-20.27 -10.13,-20.27l-20.28 -20.27c0,0 0,-10.14 -10.13,-10.14l-10.14 -10.13c-10.13,0 -20.27,-10.14 -30.41,-20.28l-10.13 50.68 0 0c0,20.28 0,30.41 0,40.55 -10.14,10.14 -10.14,20.27 -10.14,20.27 -10.13,10.14 -30.41,0 -30.41,0 0,-10.13 0,-30.41 10.14,-40.54 0,0 0,0 0,-10.14 0,0 0,0 0,0 0,0 0,0 0,0 0,-20.27 10.14,-70.95 10.14,-81.06 0,0 -10.14,0 -10.14,-10.14 0,0 -10.14,-10.13 -20.27,-10.13l-20.28 0 -20.27 0 -20.27 0 -20.27 0 0.03 0.03z"/>
    <path fill="#2F469B" d="M434.74 2908.51c30.41,0 50.68,0 81.06,-10.14 20.27,-10.14 50.68,-30.41 60.82,-50.68l10.14 -10.14c20.27,-20.27 30.4,-30.4 40.54,-60.81 10.14,-10.14 10.14,-10.14 10.14,-20.28 20.27,-30.4 30.4,-81.06 30.4,-121.6 0,-10.14 0,-10.14 0,-20.27 0,-10.14 0,-10.14 0,-20.28 0,-20.27 0,-40.54 -10.13,-60.81 0,0 0,0 -10.14,-10.14 -10.13,-20.27 -10.13,-20.27 -20.27,-40.54 -20.27,-30.41 -50.68,-50.68 -81.06,-70.96 -40.55,-20.27 -70.95,-20.27 -111.47,-20.27l0 0c-60.82,0 -111.47,30.41 -152.01,70.95l0 10.14c-30.41,30.41 -50.68,70.95 -50.68,121.61l-10.14 30.4c0,0 0,0 0,10.14 0,20.27 10.14,40.54 10.14,60.82 10.13,20.27 10.13,40.54 20.27,50.68 0,10.13 10.13,10.13 10.13,10.13 0,20.28 20.28,50.69 30.41,60.82 0,0 10.14,10.14 10.14,10.14l40.54 40.54c20.28,20.27 60.82,40.55 91.2,40.55l-0.03 0z"/>
    <path fill="#2F469B" d="M434.74 2989.57l-40.54 263.48 60.81 60.82 0 0 0 0 0 0 0 0 0 0 0 0 50.68 -60.82 -30.4 -263.48c0,0 20.27,-20.27 20.27,-30.41 0,0 10.13,-20.27 20.27,-30.41 -40.54,10.14 -91.2,10.14 -121.6,0 0,10.14 10.13,30.41 20.27,30.41 0,10.14 20.27,30.41 20.27,30.41l-0.03 0z"/>
    <path fill="#3891C7" d="M2218.36 1641.75l0 912.08c0,20.27 -20.27,40.54 -40.54,40.54l-131.74 0c-20.28,0 -40.55,-20.27 -40.55,-40.54l0 -729.66c81.06,-60.82 152.01,-121.61 212.83,-182.42zm-1165.43 567.51l0 344.57c0,20.27 -20.27,40.54 -40.54,40.54l-131.74 0c-20.28,0 -40.55,-20.27 -40.55,-40.54l0 -324.3c81.06,0 141.88,-10.14 212.83,-20.27zm293.89 -60.82l0 405.36c0,20.27 -20.27,40.54 -40.54,40.54l-131.74 0c-20.27,0 -40.55,-20.27 -40.55,-40.54l0 -354.71c70.96,-10.14 141.88,-30.41 212.83,-50.68l0 0.03zm293.89 -111.47l0 516.83c0,20.27 -20.27,40.54 -40.54,40.54l-131.74 0c-20.27,0 -40.55,-20.27 -40.55,-40.54l0 -425.63c70.96,-30.41 141.88,-60.82 212.83,-91.2zm283.76 -162.15l0 678.98c0,20.27 -10.14,40.54 -40.54,40.54l-131.75 0c-20.27,0 -40.54,-20.27 -40.54,-40.54l0 -547.24c81.06,-40.54 152.01,-81.06 212.83,-131.74z"/>
   </g>
  </g>
 </g>
</svg>
