<?xml version="1.0" encoding="UTF-8" ?>
<!DOCTYPE svg PUBLIC "-//W3C//DTD SVG 1.1//EN" "http://www.w3.org/Graphics/SVG/1.1/DTD/svg11.dtd">
<svg width="27pt" height="27pt" viewBox="0 0 27 27" version="1.1" xmlns="http://www.w3.org/2000/svg">
<g id="#115da9ff">
<path fill="#115da9" opacity="1.00" d=" M 12.46 3.47 C 15.89 2.49 19.22 6.46 17.61 9.65 C 16.50 12.93 11.36 13.25 9.70 10.28 C 7.99 7.84 9.57 4.08 12.46 3.47 Z" />
<path fill="#115da9" opacity="1.00" d=" M 12.45 15.71 C 12.98 15.71 14.03 15.71 14.56 15.71 C 15.33 16.82 16.10 17.93 16.85 19.04 C 17.34 18.41 18.30 17.14 18.78 16.50 C 20.41 17.35 22.05 18.20 23.64 19.11 C 23.61 20.62 23.61 22.12 23.62 23.63 C 16.87 23.63 10.12 23.63 3.37 23.63 C 3.39 22.11 3.40 20.59 3.36 19.07 C 5.00 18.19 6.64 17.33 8.29 16.48 C 8.75 17.13 9.67 18.42 10.14 19.07 C 10.89 17.94 11.67 16.82 12.45 15.71 Z" />
</g>
</svg>
