<svg width="24" height="26" viewBox="0 0 24 26" fill="none" xmlns="http://www.w3.org/2000/svg">
<path d="M14.9608 19.7647V9.88234C14.9608 8.23528 14.4379 6.80391 13.3921 5.58823C12.3464 4.37254 11.0392 3.7647 9.47058 3.7647C7.90195 3.7647 6.59476 4.37254 5.54901 5.58823C4.50326 6.80391 3.98038 8.23528 3.98038 9.88234V19.451C3.98038 19.8954 3.83005 20.268 3.5294 20.5686C3.22875 20.8693 2.8562 21.0196 2.41175 21.0196C1.96731 21.0196 1.59476 20.8693 1.29411 20.5686C0.993452 20.268 0.843126 19.8954 0.843126 19.451V9.88234C0.843126 7.3464 1.66665 5.16992 3.31371 3.35293C4.96077 1.53594 7.01306 0.627441 9.47058 0.627441C11.9281 0.627441 13.9804 1.53594 15.6274 3.35293C17.2745 5.16992 18.098 7.3464 18.098 9.88234V19.7647L21.0784 16.7843C21.366 16.4967 21.732 16.3529 22.1765 16.3529C22.6209 16.3529 22.9869 16.4967 23.2745 16.7843C23.5621 17.0719 23.7059 17.4379 23.7059 17.8823C23.7059 18.3268 23.5621 18.6928 23.2745 18.9804L17.6274 24.6274C17.4706 24.7843 17.3006 24.8954 17.1176 24.9608C16.9346 25.0261 16.7386 25.0588 16.5294 25.0588C16.3203 25.0588 16.1242 25.0261 15.9412 24.9608C15.7582 24.8954 15.5882 24.7843 15.4314 24.6274L9.7843 18.9804C9.49672 18.6928 9.35293 18.3268 9.35293 17.8823C9.35293 17.4379 9.49672 17.0719 9.7843 16.7843C10.0719 16.4967 10.4379 16.3529 10.8823 16.3529C11.3268 16.3529 11.6928 16.4967 11.9804 16.7843L14.9608 19.7647Z" fill="#1C1B1F"/>
</svg>
