<?xml version="1.0" encoding="UTF-8"?>
<!DOCTYPE svg PUBLIC "-//W3C//DTD SVG 1.1//EN" "http://www.w3.org/Graphics/SVG/1.1/DTD/svg11.dtd">
<!-- Creator: CorelDRAW -->
<svg xmlns="http://www.w3.org/2000/svg" xml:space="preserve" width="150px" height="150px" version="1.1" shape-rendering="geometricPrecision" text-rendering="geometricPrecision" image-rendering="optimizeQuality" fill-rule="evenodd" clip-rule="evenodd"
viewBox="0 0 34.85 34.89"
 xmlns:xlink="http://www.w3.org/1999/xlink"
 xmlns:xodm="http://www.corel.com/coreldraw/odm/2003">
 <g id="Слой_x0020_1">
  <metadata id="CorelCorpID_0Corel-Layer"/>
  <g id="saveAlt.svg">
   <g id="__x0023_ffffffff">
   </g>
   <g id="__x0023_278db5ff">
    <path fill="#9900CC" fill-rule="nonzero" d="M15.56 0c1.26,0.03 2.52,0.05 3.79,0.06 -0.05,6.14 -0.02,12.26 -0.03,18.39 1.94,-1.27 3.48,-3.04 5.11,-4.66 0.88,0.88 1.77,1.76 2.66,2.64 -3.2,3.23 -6.42,6.45 -9.65,9.65 -3.15,-3.21 -6.37,-6.35 -9.5,-9.57 0.76,-0.91 1.54,-1.81 2.31,-2.71 1.81,1.55 3.55,3.2 5.3,4.85 0.02,-6.22 -0.01,-12.43 0.01,-18.65z"/>
    <path fill="#9900CC" fill-rule="nonzero" d="M0.07 17.43c1.26,0.02 2.52,0.04 3.78,0.04 -0.03,4.51 -0.02,9.02 -0.01,13.53 9.07,-0.01 18.14,0.03 27.22,-0.02 -0.03,-4.52 -0.02,-9.04 -0.01,-13.55 1.26,0.02 2.53,0.05 3.8,0.07 -0.11,4.5 0.05,9 -0.06,13.5 0.11,2.25 -2.23,4.15 -4.41,3.86 -8.77,0.01 -17.54,0.05 -26.31,-0.01 -1.88,0.19 -3.01,-1.48 -4.07,-2.71 0.13,-4.9 0.03,-9.81 0.07,-14.71z"/>
   </g>
  </g>
 </g>
</svg>
