<svg width="29" height="29" viewBox="0 0 29 29" fill="none" xmlns="http://www.w3.org/2000/svg">
<path d="M3.84313 28.8627C2.98038 28.8627 2.24182 28.5555 1.62744 27.9412C1.01306 27.3268 0.705872 26.5882 0.705872 25.7255V3.7647C0.705872 2.90195 1.01306 2.16339 1.62744 1.54901C2.24182 0.934631 2.98038 0.627441 3.84313 0.627441H21.3725C21.7908 0.627441 22.1895 0.705873 22.5686 0.862736C22.9477 1.0196 23.281 1.24182 23.5686 1.5294L28.0392 5.99999C28.3268 6.28757 28.549 6.62091 28.7059 6.99999C28.8627 7.37908 28.9412 7.77777 28.9412 8.19607V25.7255C28.9412 26.5882 28.634 27.3268 28.0196 27.9412C27.4052 28.5555 26.6667 28.8627 25.8039 28.8627H3.84313ZM25.8039 8.23528L21.3333 3.7647H3.84313V25.7255H25.8039V8.23528ZM14.8235 24.1569C16.1307 24.1569 17.2418 23.6993 18.1569 22.7843C19.0719 21.8693 19.5294 20.7582 19.5294 19.451C19.5294 18.1438 19.0719 17.0327 18.1569 16.1176C17.2418 15.2026 16.1307 14.7451 14.8235 14.7451C13.5163 14.7451 12.4052 15.2026 11.4902 16.1176C10.5752 17.0327 10.1176 18.1438 10.1176 19.451C10.1176 20.7582 10.5752 21.8693 11.4902 22.7843C12.4052 23.6993 13.5163 24.1569 14.8235 24.1569ZM6.98038 11.6078H17.9608C18.4052 11.6078 18.7778 11.4575 19.0784 11.1569C19.3791 10.8562 19.5294 10.4837 19.5294 10.0392V6.90195C19.5294 6.45751 19.3791 6.08496 19.0784 5.7843C18.7778 5.48365 18.4052 5.33332 17.9608 5.33332H6.98038C6.53594 5.33332 6.16339 5.48365 5.86273 5.7843C5.56208 6.08496 5.41175 6.45751 5.41175 6.90195V10.0392C5.41175 10.4837 5.56208 10.8562 5.86273 11.1569C6.16339 11.4575 6.53594 11.6078 6.98038 11.6078Z" fill="#D9C93C"/>
</svg>
