<svg width="25" height="32" viewBox="0 0 25 32" fill="none" xmlns="http://www.w3.org/2000/svg">
<path d="M3.8235 31.8235C3.01468 31.8235 2.32228 31.5356 1.74629 30.9596C1.17031 30.3836 0.882324 29.6912 0.882324 28.8824V12.7059C0.882324 11.8971 1.17031 11.2047 1.74629 10.6287C2.32228 10.0527 3.01468 9.76472 3.8235 9.76472H6.76468C7.18134 9.76472 7.53061 9.90565 7.81247 10.1875C8.09433 10.4694 8.23527 10.8186 8.23527 11.2353C8.23527 11.652 8.09433 12.0012 7.81247 12.2831C7.53061 12.565 7.18134 12.7059 6.76468 12.7059H3.8235V28.8824H21.4706V12.7059H18.5294C18.1127 12.7059 17.7635 12.565 17.4816 12.2831C17.1997 12.0012 17.0588 11.652 17.0588 11.2353C17.0588 10.8186 17.1997 10.4694 17.4816 10.1875C17.7635 9.90565 18.1127 9.76472 18.5294 9.76472H21.4706C22.2794 9.76472 22.9718 10.0527 23.5478 10.6287C24.1237 11.2047 24.4117 11.8971 24.4117 12.7059V28.8824C24.4117 29.6912 24.1237 30.3836 23.5478 30.9596C22.9718 31.5356 22.2794 31.8235 21.4706 31.8235H3.8235ZM11.1764 5.0956L9.85291 6.41913C9.55879 6.71325 9.21566 6.85418 8.8235 6.84193C8.43134 6.82967 8.08821 6.67649 7.79409 6.38237C7.52448 6.08825 7.38355 5.74511 7.37129 5.35296C7.35904 4.9608 7.49997 4.61766 7.79409 4.32354L11.6176 0.500014C11.9117 0.205897 12.2549 0.0588379 12.647 0.0588379C13.0392 0.0588379 13.3823 0.205897 13.6764 0.500014L17.5 4.32354C17.7696 4.59315 17.9044 4.93016 17.9044 5.33457C17.9044 5.73899 17.7696 6.08825 17.5 6.38237C17.2059 6.67649 16.8566 6.82354 16.4522 6.82354C16.0478 6.82354 15.6985 6.67649 15.4044 6.38237L14.1176 5.0956V20.0588C14.1176 20.4755 13.9767 20.8248 13.6948 21.1066C13.413 21.3885 13.0637 21.5294 12.647 21.5294C12.2304 21.5294 11.8811 21.3885 11.5992 21.1066C11.3174 20.8248 11.1764 20.4755 11.1764 20.0588V5.0956Z" fill="#3A8128"/>
</svg>
