<svg width="25" height="35" viewBox="0 0 25 35" fill="none" xmlns="http://www.w3.org/2000/svg">
<path d="M12.5081 21.7602C11.0432 21.7602 9.7981 21.2313 8.77269 20.1735C7.74729 19.1157 7.23459 17.8312 7.23459 16.3201V5.44004C7.23459 3.92892 7.74729 2.64446 8.77269 1.58668C9.7981 0.528893 11.0432 0 12.5081 0C13.973 0 15.2181 0.528893 16.2435 1.58668C17.2689 2.64446 17.7816 3.92892 17.7816 5.44004V16.3201C17.7816 17.8312 17.2689 19.1157 16.2435 20.1735C15.2181 21.2313 13.973 21.7602 12.5081 21.7602ZM10.7503 34.4536V28.8775C7.70334 28.4544 5.18378 27.0491 3.19157 24.6615C1.19935 22.2739 0.203247 19.4935 0.203247 16.3201H3.71892C3.71892 18.8286 4.57586 20.9668 6.28975 22.7348C8.00364 24.5028 10.0764 25.3868 12.5081 25.3868C14.9398 25.3868 17.0125 24.5028 18.7264 22.7348C20.4403 20.9668 21.2973 18.8286 21.2973 16.3201H24.8129C24.8129 19.4935 23.8168 22.2739 21.8246 24.6615C19.8324 27.0491 17.3128 28.4544 14.2659 28.8775V34.4536H10.7503ZM12.5081 18.1335C13.0061 18.1335 13.4236 17.9597 13.7606 17.6121C14.0975 17.2646 14.2659 16.8339 14.2659 16.3201V5.44004C14.2659 4.92626 14.0975 4.49559 13.7606 4.14803C13.4236 3.80047 13.0061 3.62669 12.5081 3.62669C12.01 3.62669 11.5926 3.80047 11.2556 4.14803C10.9187 4.49559 10.7503 4.92626 10.7503 5.44004V16.3201C10.7503 16.8339 10.9187 17.2646 11.2556 17.6121C11.5926 17.9597 12.01 18.1335 12.5081 18.1335Z" fill="#FF8A00"/>
</svg>
